<svg xmlns="http://www.w3.org/2000/svg" viewBox="0 0 360 720">
  <ellipse cx="178" cy="676" rx="118" ry="28" fill="#000" opacity=".18"/>
  <path d="M88 342c-42 44-58 117-58 234h300c0-117-16-190-58-234-44-45-140-45-184 0z" fill="#7a5ca8"/>
  <path d="M116 380h128l36 196H80z" fill="#f4eadc"/>
  <path d="M126 214h108v112c0 30-24 54-54 54s-54-24-54-54z" fill="#efc3a8"/>
  <path d="M112 170c20-72 116-92 158-40 24 29 26 73 11 112-31-20-62-34-105-34-28 0-51 9-74 26-5-20-2-43 10-64z" fill="#3f344d"/>
  <circle cx="148" cy="268" r="7" fill="#303640"/>
  <circle cx="210" cy="268" r="7" fill="#303640"/>
  <path d="M159 308c16 12 34 12 50 0" fill="none" stroke="#9a5e50" stroke-width="7" stroke-linecap="round"/>
  <path d="M82 432c-36 46-44 102-24 168l47-12c-9-56 2-100 32-136z" fill="#664b91"/>
  <path d="M278 432c36 46 44 102 24 168l-47-12c9-56-2-100-32-136z" fill="#664b91"/>
</svg>
