<svg xmlns="http://www.w3.org/2000/svg" viewBox="0 0 1400 788">
  <defs>
    <linearGradient id="g" x1="0" x2="0" y1="0" y2="1">
      <stop offset="0" stop-color="#9fd5f2"/>
      <stop offset=".58" stop-color="#f5d8bf"/>
      <stop offset="1" stop-color="#8a8f92"/>
    </linearGradient>
  </defs>
  <rect width="1400" height="788" fill="url(#g)"/>
  <circle cx="1120" cy="150" r="70" fill="#fff0c2" opacity=".86"/>
  <rect x="78" y="250" width="150" height="390" fill="#60717c"/>
  <rect x="260" y="175" width="190" height="465" fill="#475b68"/>
  <rect x="502" y="286" width="132" height="354" fill="#72808a"/>
  <rect x="690" y="215" width="212" height="425" fill="#53656f"/>
  <rect x="955" y="308" width="165" height="332" fill="#6d7b84"/>
  <rect x="1170" y="230" width="140" height="410" fill="#495d67"/>
  <g fill="#f8f0cd" opacity=".75">
    <rect x="295" y="220" width="28" height="42"/><rect x="358" y="220" width="28" height="42"/>
    <rect x="728" y="262" width="28" height="42"/><rect x="792" y="262" width="28" height="42"/>
    <rect x="1000" y="354" width="25" height="38"/><rect x="1058" y="354" width="25" height="38"/>
  </g>
  <rect y="632" width="1400" height="156" fill="#4a4d4f"/>
  <path d="M0 672h1400" stroke="#f4e5bf" stroke-width="8" stroke-dasharray="80 54"/>
</svg>
